<?xml version="1.0" encoding="utf-8" standalone="no"?>
<!DOCTYPE svg PUBLIC "-//W3C//DTD SVG 1.1//EN"
  "http://www.w3.org/Graphics/SVG/1.1/DTD/svg11.dtd">
<!-- Created with matplotlib (https://matplotlib.org/) -->
<svg height="576pt" version="1.1" viewBox="0 0 1080 576" width="1080pt" xmlns="http://www.w3.org/2000/svg" xmlns:xlink="http://www.w3.org/1999/xlink">
 <defs>
  <style type="text/css">
*{stroke-linecap:butt;stroke-linejoin:round;}
  </style>
 </defs>
 <g id="figure_1">
  <g id="patch_1">
   <path d="M 0 576 
L 1080 576 
L 1080 0 
L 0 0 
z
" style="fill:#ffffff;"/>
  </g>
  <g id="axes_1">
   <g id="patch_2">
    <path d="M 135 504 
L 972 504 
L 972 69.12 
L 135 69.12 
z
" style="fill:#ffffff;"/>
   </g>
   <g id="patch_3">
    <path clip-path="url(#p9137dca9b9)" d="M 139.755682 504 
L 149.267045 504 
L 149.267045 499.325379 
L 139.755682 499.325379 
z
" style="fill:#1f77b4;"/>
   </g>
   <g id="patch_4">
    <path clip-path="url(#p9137dca9b9)" d="M 158.778409 504 
L 168.289773 504 
L 168.289773 494.650758 
L 158.778409 494.650758 
z
" style="fill:#1f77b4;"/>
   </g>
   <g id="patch_5">
    <path clip-path="url(#p9137dca9b9)" d="M 177.801136 504 
L 187.3125 504 
L 187.3125 489.976137 
L 177.801136 489.976137 
z
" style="fill:#1f77b4;"/>
   </g>
   <g id="patch_6">
    <path clip-path="url(#p9137dca9b9)" d="M 196.823864 504 
L 206.335227 504 
L 206.335227 494.650758 
L 196.823864 494.650758 
z
" style="fill:#1f77b4;"/>
   </g>
   <g id="patch_7">
    <path clip-path="url(#p9137dca9b9)" d="M 215.846591 504 
L 225.357955 504 
L 225.357955 312.340535 
L 215.846591 312.340535 
z
" style="fill:#1f77b4;"/>
   </g>
   <g id="patch_8">
    <path clip-path="url(#p9137dca9b9)" d="M 234.869318 504 
L 244.380682 504 
L 244.380682 331.973944 
L 234.869318 331.973944 
z
" style="fill:#1f77b4;"/>
   </g>
   <g id="patch_9">
    <path clip-path="url(#p9137dca9b9)" d="M 253.892045 504 
L 263.403409 504 
L 263.403409 337.583489 
L 253.892045 337.583489 
z
" style="fill:#1f77b4;"/>
   </g>
   <g id="patch_10">
    <path clip-path="url(#p9137dca9b9)" d="M 272.914773 504 
L 282.426136 504 
L 282.426136 356.281974 
L 272.914773 356.281974 
z
" style="fill:#1f77b4;"/>
   </g>
   <g id="patch_11">
    <path clip-path="url(#p9137dca9b9)" d="M 291.9375 504 
L 301.448864 504 
L 301.448864 370.305837 
L 291.9375 370.305837 
z
" style="fill:#1f77b4;"/>
   </g>
   <g id="patch_12">
    <path clip-path="url(#p9137dca9b9)" d="M 310.960227 504 
L 320.471591 504 
L 320.471591 398.353563 
L 310.960227 398.353563 
z
" style="fill:#1f77b4;"/>
   </g>
   <g id="patch_13">
    <path clip-path="url(#p9137dca9b9)" d="M 329.982955 504 
L 339.494318 504 
L 339.494318 413.312351 
L 329.982955 413.312351 
z
" style="fill:#1f77b4;"/>
   </g>
   <g id="patch_14">
    <path clip-path="url(#p9137dca9b9)" d="M 349.005682 504 
L 358.517045 504 
L 358.517045 435.750532 
L 349.005682 435.750532 
z
" style="fill:#1f77b4;"/>
   </g>
   <g id="patch_15">
    <path clip-path="url(#p9137dca9b9)" d="M 368.028409 504 
L 377.539773 504 
L 377.539773 429.206063 
L 368.028409 429.206063 
z
" style="fill:#1f77b4;"/>
   </g>
   <g id="patch_16">
    <path clip-path="url(#p9137dca9b9)" d="M 387.051136 504 
L 396.5625 504 
L 396.5625 423.596517 
L 387.051136 423.596517 
z
" style="fill:#1f77b4;"/>
   </g>
   <g id="patch_17">
    <path clip-path="url(#p9137dca9b9)" d="M 406.073864 504 
L 415.585227 504 
L 415.585227 440.425153 
L 406.073864 440.425153 
z
" style="fill:#1f77b4;"/>
   </g>
   <g id="patch_18">
    <path clip-path="url(#p9137dca9b9)" d="M 425.096591 504 
L 434.607955 504 
L 434.607955 497.45553 
L 425.096591 497.45553 
z
" style="fill:#1f77b4;"/>
   </g>
   <g id="patch_19">
    <path clip-path="url(#p9137dca9b9)" d="M 444.119318 504 
L 453.630682 504 
L 453.630682 495.585682 
L 444.119318 495.585682 
z
" style="fill:#1f77b4;"/>
   </g>
   <g id="patch_20">
    <path clip-path="url(#p9137dca9b9)" d="M 463.142045 504 
L 472.653409 504 
L 472.653409 502.130152 
L 463.142045 502.130152 
z
" style="fill:#1f77b4;"/>
   </g>
   <g id="patch_21">
    <path clip-path="url(#p9137dca9b9)" d="M 482.164773 504 
L 491.676136 504 
L 491.676136 504 
L 482.164773 504 
z
" style="fill:#1f77b4;"/>
   </g>
   <g id="patch_22">
    <path clip-path="url(#p9137dca9b9)" d="M 501.1875 504 
L 510.698864 504 
L 510.698864 502.130152 
L 501.1875 502.130152 
z
" style="fill:#1f77b4;"/>
   </g>
   <g id="patch_23">
    <path clip-path="url(#p9137dca9b9)" d="M 520.210227 504 
L 529.721591 504 
L 529.721591 503.065076 
L 520.210227 503.065076 
z
" style="fill:#1f77b4;"/>
   </g>
   <g id="patch_24">
    <path clip-path="url(#p9137dca9b9)" d="M 539.232955 504 
L 548.744318 504 
L 548.744318 500.260303 
L 539.232955 500.260303 
z
" style="fill:#1f77b4;"/>
   </g>
   <g id="patch_25">
    <path clip-path="url(#p9137dca9b9)" d="M 558.255682 504 
L 567.767045 504 
L 567.767045 503.065076 
L 558.255682 503.065076 
z
" style="fill:#1f77b4;"/>
   </g>
   <g id="patch_26">
    <path clip-path="url(#p9137dca9b9)" d="M 577.278409 504 
L 586.789773 504 
L 586.789773 500.260303 
L 577.278409 500.260303 
z
" style="fill:#1f77b4;"/>
   </g>
   <g id="patch_27">
    <path clip-path="url(#p9137dca9b9)" d="M 596.301136 504 
L 605.8125 504 
L 605.8125 503.065076 
L 596.301136 503.065076 
z
" style="fill:#1f77b4;"/>
   </g>
   <g id="patch_28">
    <path clip-path="url(#p9137dca9b9)" d="M 615.323864 504 
L 624.835227 504 
L 624.835227 502.130152 
L 615.323864 502.130152 
z
" style="fill:#1f77b4;"/>
   </g>
   <g id="patch_29">
    <path clip-path="url(#p9137dca9b9)" d="M 634.346591 504 
L 643.857955 504 
L 643.857955 504 
L 634.346591 504 
z
" style="fill:#1f77b4;"/>
   </g>
   <g id="patch_30">
    <path clip-path="url(#p9137dca9b9)" d="M 653.369318 504 
L 662.880682 504 
L 662.880682 502.130152 
L 653.369318 502.130152 
z
" style="fill:#1f77b4;"/>
   </g>
   <g id="patch_31">
    <path clip-path="url(#p9137dca9b9)" d="M 672.392045 504 
L 681.903409 504 
L 681.903409 502.130152 
L 672.392045 502.130152 
z
" style="fill:#1f77b4;"/>
   </g>
   <g id="patch_32">
    <path clip-path="url(#p9137dca9b9)" d="M 691.414773 504 
L 700.926136 504 
L 700.926136 503.065076 
L 691.414773 503.065076 
z
" style="fill:#1f77b4;"/>
   </g>
   <g id="patch_33">
    <path clip-path="url(#p9137dca9b9)" d="M 710.4375 504 
L 719.948864 504 
L 719.948864 496.520606 
L 710.4375 496.520606 
z
" style="fill:#1f77b4;"/>
   </g>
   <g id="patch_34">
    <path clip-path="url(#p9137dca9b9)" d="M 729.460227 504 
L 738.971591 504 
L 738.971591 486.23644 
L 729.460227 486.23644 
z
" style="fill:#1f77b4;"/>
   </g>
   <g id="patch_35">
    <path clip-path="url(#p9137dca9b9)" d="M 748.482955 504 
L 757.994318 504 
L 757.994318 470.342728 
L 748.482955 470.342728 
z
" style="fill:#1f77b4;"/>
   </g>
   <g id="patch_36">
    <path clip-path="url(#p9137dca9b9)" d="M 767.505682 504 
L 777.017045 504 
L 777.017045 500.260303 
L 767.505682 500.260303 
z
" style="fill:#1f77b4;"/>
   </g>
   <g id="patch_37">
    <path clip-path="url(#p9137dca9b9)" d="M 786.528409 504 
L 796.039773 504 
L 796.039773 501.195227 
L 786.528409 501.195227 
z
" style="fill:#1f77b4;"/>
   </g>
   <g id="patch_38">
    <path clip-path="url(#p9137dca9b9)" d="M 805.551136 504 
L 815.0625 504 
L 815.0625 501.195227 
L 805.551136 501.195227 
z
" style="fill:#1f77b4;"/>
   </g>
   <g id="patch_39">
    <path clip-path="url(#p9137dca9b9)" d="M 824.573864 504 
L 834.085227 504 
L 834.085227 503.065076 
L 824.573864 503.065076 
z
" style="fill:#1f77b4;"/>
   </g>
   <g id="patch_40">
    <path clip-path="url(#p9137dca9b9)" d="M 843.596591 504 
L 853.107955 504 
L 853.107955 504 
L 843.596591 504 
z
" style="fill:#1f77b4;"/>
   </g>
   <g id="patch_41">
    <path clip-path="url(#p9137dca9b9)" d="M 862.619318 504 
L 872.130682 504 
L 872.130682 503.065076 
L 862.619318 503.065076 
z
" style="fill:#1f77b4;"/>
   </g>
   <g id="patch_42">
    <path clip-path="url(#p9137dca9b9)" d="M 881.642045 504 
L 891.153409 504 
L 891.153409 503.065076 
L 881.642045 503.065076 
z
" style="fill:#1f77b4;"/>
   </g>
   <g id="patch_43">
    <path clip-path="url(#p9137dca9b9)" d="M 900.664773 504 
L 910.176136 504 
L 910.176136 503.065076 
L 900.664773 503.065076 
z
" style="fill:#1f77b4;"/>
   </g>
   <g id="patch_44">
    <path clip-path="url(#p9137dca9b9)" d="M 919.6875 504 
L 929.198864 504 
L 929.198864 504 
L 919.6875 504 
z
" style="fill:#1f77b4;"/>
   </g>
   <g id="patch_45">
    <path clip-path="url(#p9137dca9b9)" d="M 938.710227 504 
L 948.221591 504 
L 948.221591 498.390455 
L 938.710227 498.390455 
z
" style="fill:#1f77b4;"/>
   </g>
   <g id="patch_46">
    <path clip-path="url(#p9137dca9b9)" d="M 957.732955 504 
L 967.244318 504 
L 967.244318 504 
L 957.732955 504 
z
" style="fill:#1f77b4;"/>
   </g>
   <g id="patch_47">
    <path clip-path="url(#p9137dca9b9)" d="M 139.755682 499.325379 
L 149.267045 499.325379 
L 149.267045 490.911061 
L 139.755682 490.911061 
z
" style="fill:#ff7f0e;"/>
   </g>
   <g id="patch_48">
    <path clip-path="url(#p9137dca9b9)" d="M 158.778409 494.650758 
L 168.289773 494.650758 
L 168.289773 487.171364 
L 158.778409 487.171364 
z
" style="fill:#ff7f0e;"/>
   </g>
   <g id="patch_49">
    <path clip-path="url(#p9137dca9b9)" d="M 177.801136 489.976137 
L 187.3125 489.976137 
L 187.3125 475.952273 
L 177.801136 475.952273 
z
" style="fill:#ff7f0e;"/>
   </g>
   <g id="patch_50">
    <path clip-path="url(#p9137dca9b9)" d="M 196.823864 494.650758 
L 206.335227 494.650758 
L 206.335227 475.017349 
L 196.823864 475.017349 
z
" style="fill:#ff7f0e;"/>
   </g>
   <g id="patch_51">
    <path clip-path="url(#p9137dca9b9)" d="M 215.846591 312.340535 
L 225.357955 312.340535 
L 225.357955 272.138794 
L 215.846591 272.138794 
z
" style="fill:#ff7f0e;"/>
   </g>
   <g id="patch_52">
    <path clip-path="url(#p9137dca9b9)" d="M 234.869318 331.973944 
L 244.380682 331.973944 
L 244.380682 266.529249 
L 234.869318 266.529249 
z
" style="fill:#ff7f0e;"/>
   </g>
   <g id="patch_53">
    <path clip-path="url(#p9137dca9b9)" d="M 253.892045 337.583489 
L 263.403409 337.583489 
L 263.403409 233.806901 
L 253.892045 233.806901 
z
" style="fill:#ff7f0e;"/>
   </g>
   <g id="patch_54">
    <path clip-path="url(#p9137dca9b9)" d="M 272.914773 356.281974 
L 282.426136 356.281974 
L 282.426136 212.303644 
L 272.914773 212.303644 
z
" style="fill:#ff7f0e;"/>
   </g>
   <g id="patch_55">
    <path clip-path="url(#p9137dca9b9)" d="M 291.9375 370.305837 
L 301.448864 370.305837 
L 301.448864 187.06069 
L 291.9375 187.06069 
z
" style="fill:#ff7f0e;"/>
   </g>
   <g id="patch_56">
    <path clip-path="url(#p9137dca9b9)" d="M 310.960227 398.353563 
L 320.471591 398.353563 
L 320.471591 235.676749 
L 310.960227 235.676749 
z
" style="fill:#ff7f0e;"/>
   </g>
   <g id="patch_57">
    <path clip-path="url(#p9137dca9b9)" d="M 329.982955 413.312351 
L 339.494318 413.312351 
L 339.494318 259.049855 
L 329.982955 259.049855 
z
" style="fill:#ff7f0e;"/>
   </g>
   <g id="patch_58">
    <path clip-path="url(#p9137dca9b9)" d="M 349.005682 435.750532 
L 358.517045 435.750532 
L 358.517045 294.576975 
L 349.005682 294.576975 
z
" style="fill:#ff7f0e;"/>
   </g>
   <g id="patch_59">
    <path clip-path="url(#p9137dca9b9)" d="M 368.028409 429.206063 
L 377.539773 429.206063 
L 377.539773 230.067204 
L 368.028409 230.067204 
z
" style="fill:#ff7f0e;"/>
   </g>
   <g id="patch_60">
    <path clip-path="url(#p9137dca9b9)" d="M 387.051136 423.596517 
L 396.5625 423.596517 
L 396.5625 173.971751 
L 387.051136 173.971751 
z
" style="fill:#ff7f0e;"/>
   </g>
   <g id="patch_61">
    <path clip-path="url(#p9137dca9b9)" d="M 406.073864 440.425153 
L 415.585227 440.425153 
L 415.585227 89.828571 
L 406.073864 89.828571 
z
" style="fill:#ff7f0e;"/>
   </g>
   <g id="patch_62">
    <path clip-path="url(#p9137dca9b9)" d="M 425.096591 497.45553 
L 434.607955 497.45553 
L 434.607955 486.23644 
L 425.096591 486.23644 
z
" style="fill:#ff7f0e;"/>
   </g>
   <g id="patch_63">
    <path clip-path="url(#p9137dca9b9)" d="M 444.119318 495.585682 
L 453.630682 495.585682 
L 453.630682 463.798259 
L 444.119318 463.798259 
z
" style="fill:#ff7f0e;"/>
   </g>
   <g id="patch_64">
    <path clip-path="url(#p9137dca9b9)" d="M 463.142045 502.130152 
L 472.653409 502.130152 
L 472.653409 487.171364 
L 463.142045 487.171364 
z
" style="fill:#ff7f0e;"/>
   </g>
   <g id="patch_65">
    <path clip-path="url(#p9137dca9b9)" d="M 482.164773 504 
L 491.676136 504 
L 491.676136 471.277652 
L 482.164773 471.277652 
z
" style="fill:#ff7f0e;"/>
   </g>
   <g id="patch_66">
    <path clip-path="url(#p9137dca9b9)" d="M 501.1875 502.130152 
L 510.698864 502.130152 
L 510.698864 477.822122 
L 501.1875 477.822122 
z
" style="fill:#ff7f0e;"/>
   </g>
   <g id="patch_67">
    <path clip-path="url(#p9137dca9b9)" d="M 520.210227 503.065076 
L 529.721591 503.065076 
L 529.721591 475.952273 
L 520.210227 475.952273 
z
" style="fill:#ff7f0e;"/>
   </g>
   <g id="patch_68">
    <path clip-path="url(#p9137dca9b9)" d="M 539.232955 500.260303 
L 548.744318 500.260303 
L 548.744318 477.822122 
L 539.232955 477.822122 
z
" style="fill:#ff7f0e;"/>
   </g>
   <g id="patch_69">
    <path clip-path="url(#p9137dca9b9)" d="M 558.255682 503.065076 
L 567.767045 503.065076 
L 567.767045 465.668107 
L 558.255682 465.668107 
z
" style="fill:#ff7f0e;"/>
   </g>
   <g id="patch_70">
    <path clip-path="url(#p9137dca9b9)" d="M 577.278409 500.260303 
L 586.789773 500.260303 
L 586.789773 441.360077 
L 577.278409 441.360077 
z
" style="fill:#ff7f0e;"/>
   </g>
   <g id="patch_71">
    <path clip-path="url(#p9137dca9b9)" d="M 596.301136 503.065076 
L 605.8125 503.065076 
L 605.8125 431.075911 
L 596.301136 431.075911 
z
" style="fill:#ff7f0e;"/>
   </g>
   <g id="patch_72">
    <path clip-path="url(#p9137dca9b9)" d="M 615.323864 502.130152 
L 624.835227 502.130152 
L 624.835227 408.63773 
L 615.323864 408.63773 
z
" style="fill:#ff7f0e;"/>
   </g>
   <g id="patch_73">
    <path clip-path="url(#p9137dca9b9)" d="M 634.346591 504 
L 643.857955 504 
L 643.857955 357.216898 
L 634.346591 357.216898 
z
" style="fill:#ff7f0e;"/>
   </g>
   <g id="patch_74">
    <path clip-path="url(#p9137dca9b9)" d="M 653.369318 502.130152 
L 662.880682 502.130152 
L 662.880682 346.932731 
L 653.369318 346.932731 
z
" style="fill:#ff7f0e;"/>
   </g>
   <g id="patch_75">
    <path clip-path="url(#p9137dca9b9)" d="M 672.392045 502.130152 
L 681.903409 502.130152 
L 681.903409 322.624702 
L 672.392045 322.624702 
z
" style="fill:#ff7f0e;"/>
   </g>
   <g id="patch_76">
    <path clip-path="url(#p9137dca9b9)" d="M 691.414773 503.065076 
L 700.926136 503.065076 
L 700.926136 332.908868 
L 691.414773 332.908868 
z
" style="fill:#ff7f0e;"/>
   </g>
   <g id="patch_77">
    <path clip-path="url(#p9137dca9b9)" d="M 710.4375 496.520606 
L 719.948864 496.520606 
L 719.948864 333.843792 
L 710.4375 333.843792 
z
" style="fill:#ff7f0e;"/>
   </g>
   <g id="patch_78">
    <path clip-path="url(#p9137dca9b9)" d="M 729.460227 486.23644 
L 738.971591 486.23644 
L 738.971591 366.56614 
L 729.460227 366.56614 
z
" style="fill:#ff7f0e;"/>
   </g>
   <g id="patch_79">
    <path clip-path="url(#p9137dca9b9)" d="M 748.482955 470.342728 
L 757.994318 470.342728 
L 757.994318 341.323186 
L 748.482955 341.323186 
z
" style="fill:#ff7f0e;"/>
   </g>
   <g id="patch_80">
    <path clip-path="url(#p9137dca9b9)" d="M 767.505682 500.260303 
L 777.017045 500.260303 
L 777.017045 477.822122 
L 767.505682 477.822122 
z
" style="fill:#ff7f0e;"/>
   </g>
   <g id="patch_81">
    <path clip-path="url(#p9137dca9b9)" d="M 786.528409 501.195227 
L 796.039773 501.195227 
L 796.039773 485.301516 
L 786.528409 485.301516 
z
" style="fill:#ff7f0e;"/>
   </g>
   <g id="patch_82">
    <path clip-path="url(#p9137dca9b9)" d="M 805.551136 501.195227 
L 815.0625 501.195227 
L 815.0625 490.911061 
L 805.551136 490.911061 
z
" style="fill:#ff7f0e;"/>
   </g>
   <g id="patch_83">
    <path clip-path="url(#p9137dca9b9)" d="M 824.573864 503.065076 
L 834.085227 503.065076 
L 834.085227 488.106288 
L 824.573864 488.106288 
z
" style="fill:#ff7f0e;"/>
   </g>
   <g id="patch_84">
    <path clip-path="url(#p9137dca9b9)" d="M 843.596591 504 
L 853.107955 504 
L 853.107955 482.496743 
L 843.596591 482.496743 
z
" style="fill:#ff7f0e;"/>
   </g>
   <g id="patch_85">
    <path clip-path="url(#p9137dca9b9)" d="M 862.619318 503.065076 
L 872.130682 503.065076 
L 872.130682 489.976137 
L 862.619318 489.976137 
z
" style="fill:#ff7f0e;"/>
   </g>
   <g id="patch_86">
    <path clip-path="url(#p9137dca9b9)" d="M 881.642045 503.065076 
L 891.153409 503.065076 
L 891.153409 486.23644 
L 881.642045 486.23644 
z
" style="fill:#ff7f0e;"/>
   </g>
   <g id="patch_87">
    <path clip-path="url(#p9137dca9b9)" d="M 900.664773 503.065076 
L 910.176136 503.065076 
L 910.176136 495.585682 
L 900.664773 495.585682 
z
" style="fill:#ff7f0e;"/>
   </g>
   <g id="patch_88">
    <path clip-path="url(#p9137dca9b9)" d="M 919.6875 504 
L 929.198864 504 
L 929.198864 498.390455 
L 919.6875 498.390455 
z
" style="fill:#ff7f0e;"/>
   </g>
   <g id="patch_89">
    <path clip-path="url(#p9137dca9b9)" d="M 938.710227 498.390455 
L 948.221591 498.390455 
L 948.221591 494.650758 
L 938.710227 494.650758 
z
" style="fill:#ff7f0e;"/>
   </g>
   <g id="patch_90">
    <path clip-path="url(#p9137dca9b9)" d="M 957.732955 504 
L 967.244318 504 
L 967.244318 502.130152 
L 957.732955 502.130152 
z
" style="fill:#ff7f0e;"/>
   </g>
   <g id="matplotlib.axis_1"/>
   <g id="matplotlib.axis_2">
    <g id="ytick_1">
     <g id="line2d_1">
      <defs>
       <path d="M 0 0 
L -3.5 0 
" id="m67f473903f" style="stroke:#000000;stroke-width:0.8;"/>
      </defs>
      <g>
       <use style="stroke:#000000;stroke-width:0.8;" x="135" xlink:href="#m67f473903f" y="504"/>
      </g>
     </g>
     <g id="text_1">
      <!-- 0 -->
      <defs>
       <path d="M 31.78125 66.40625 
Q 24.171875 66.40625 20.328125 58.90625 
Q 16.5 51.421875 16.5 36.375 
Q 16.5 21.390625 20.328125 13.890625 
Q 24.171875 6.390625 31.78125 6.390625 
Q 39.453125 6.390625 43.28125 13.890625 
Q 47.125 21.390625 47.125 36.375 
Q 47.125 51.421875 43.28125 58.90625 
Q 39.453125 66.40625 31.78125 66.40625 
z
M 31.78125 74.21875 
Q 44.046875 74.21875 50.515625 64.515625 
Q 56.984375 54.828125 56.984375 36.375 
Q 56.984375 17.96875 50.515625 8.265625 
Q 44.046875 -1.421875 31.78125 -1.421875 
Q 19.53125 -1.421875 13.0625 8.265625 
Q 6.59375 17.96875 6.59375 36.375 
Q 6.59375 54.828125 13.0625 64.515625 
Q 19.53125 74.21875 31.78125 74.21875 
z
" id="DejaVuSans-48"/>
      </defs>
      <g transform="translate(118.45625 509.698828)scale(0.15 -0.15)">
       <use xlink:href="#DejaVuSans-48"/>
      </g>
     </g>
    </g>
    <g id="ytick_2">
     <g id="line2d_2">
      <g>
       <use style="stroke:#000000;stroke-width:0.8;" x="135" xlink:href="#m67f473903f" y="410.507578"/>
      </g>
     </g>
     <g id="text_2">
      <!-- 100 -->
      <defs>
       <path d="M 12.40625 8.296875 
L 28.515625 8.296875 
L 28.515625 63.921875 
L 10.984375 60.40625 
L 10.984375 69.390625 
L 28.421875 72.90625 
L 38.28125 72.90625 
L 38.28125 8.296875 
L 54.390625 8.296875 
L 54.390625 0 
L 12.40625 0 
z
" id="DejaVuSans-49"/>
      </defs>
      <g transform="translate(99.36875 416.206406)scale(0.15 -0.15)">
       <use xlink:href="#DejaVuSans-49"/>
       <use x="63.623047" xlink:href="#DejaVuSans-48"/>
       <use x="127.246094" xlink:href="#DejaVuSans-48"/>
      </g>
     </g>
    </g>
    <g id="ytick_3">
     <g id="line2d_3">
      <g>
       <use style="stroke:#000000;stroke-width:0.8;" x="135" xlink:href="#m67f473903f" y="317.015156"/>
      </g>
     </g>
     <g id="text_3">
      <!-- 200 -->
      <defs>
       <path d="M 19.1875 8.296875 
L 53.609375 8.296875 
L 53.609375 0 
L 7.328125 0 
L 7.328125 8.296875 
Q 12.9375 14.109375 22.625 23.890625 
Q 32.328125 33.6875 34.8125 36.53125 
Q 39.546875 41.84375 41.421875 45.53125 
Q 43.3125 49.21875 43.3125 52.78125 
Q 43.3125 58.59375 39.234375 62.25 
Q 35.15625 65.921875 28.609375 65.921875 
Q 23.96875 65.921875 18.8125 64.3125 
Q 13.671875 62.703125 7.8125 59.421875 
L 7.8125 69.390625 
Q 13.765625 71.78125 18.9375 73 
Q 24.125 74.21875 28.421875 74.21875 
Q 39.75 74.21875 46.484375 68.546875 
Q 53.21875 62.890625 53.21875 53.421875 
Q 53.21875 48.921875 51.53125 44.890625 
Q 49.859375 40.875 45.40625 35.40625 
Q 44.1875 33.984375 37.640625 27.21875 
Q 31.109375 20.453125 19.1875 8.296875 
z
" id="DejaVuSans-50"/>
      </defs>
      <g transform="translate(99.36875 322.713985)scale(0.15 -0.15)">
       <use xlink:href="#DejaVuSans-50"/>
       <use x="63.623047" xlink:href="#DejaVuSans-48"/>
       <use x="127.246094" xlink:href="#DejaVuSans-48"/>
      </g>
     </g>
    </g>
    <g id="ytick_4">
     <g id="line2d_4">
      <g>
       <use style="stroke:#000000;stroke-width:0.8;" x="135" xlink:href="#m67f473903f" y="223.522735"/>
      </g>
     </g>
     <g id="text_4">
      <!-- 300 -->
      <defs>
       <path d="M 40.578125 39.3125 
Q 47.65625 37.796875 51.625 33 
Q 55.609375 28.21875 55.609375 21.1875 
Q 55.609375 10.40625 48.1875 4.484375 
Q 40.765625 -1.421875 27.09375 -1.421875 
Q 22.515625 -1.421875 17.65625 -0.515625 
Q 12.796875 0.390625 7.625 2.203125 
L 7.625 11.71875 
Q 11.71875 9.328125 16.59375 8.109375 
Q 21.484375 6.890625 26.8125 6.890625 
Q 36.078125 6.890625 40.9375 10.546875 
Q 45.796875 14.203125 45.796875 21.1875 
Q 45.796875 27.640625 41.28125 31.265625 
Q 36.765625 34.90625 28.71875 34.90625 
L 20.21875 34.90625 
L 20.21875 43.015625 
L 29.109375 43.015625 
Q 36.375 43.015625 40.234375 45.921875 
Q 44.09375 48.828125 44.09375 54.296875 
Q 44.09375 59.90625 40.109375 62.90625 
Q 36.140625 65.921875 28.71875 65.921875 
Q 24.65625 65.921875 20.015625 65.03125 
Q 15.375 64.15625 9.8125 62.3125 
L 9.8125 71.09375 
Q 15.4375 72.65625 20.34375 73.4375 
Q 25.25 74.21875 29.59375 74.21875 
Q 40.828125 74.21875 47.359375 69.109375 
Q 53.90625 64.015625 53.90625 55.328125 
Q 53.90625 49.265625 50.4375 45.09375 
Q 46.96875 40.921875 40.578125 39.3125 
z
" id="DejaVuSans-51"/>
      </defs>
      <g transform="translate(99.36875 229.221563)scale(0.15 -0.15)">
       <use xlink:href="#DejaVuSans-51"/>
       <use x="63.623047" xlink:href="#DejaVuSans-48"/>
       <use x="127.246094" xlink:href="#DejaVuSans-48"/>
      </g>
     </g>
    </g>
    <g id="ytick_5">
     <g id="line2d_5">
      <g>
       <use style="stroke:#000000;stroke-width:0.8;" x="135" xlink:href="#m67f473903f" y="130.030313"/>
      </g>
     </g>
     <g id="text_5">
      <!-- 400 -->
      <defs>
       <path d="M 37.796875 64.3125 
L 12.890625 25.390625 
L 37.796875 25.390625 
z
M 35.203125 72.90625 
L 47.609375 72.90625 
L 47.609375 25.390625 
L 58.015625 25.390625 
L 58.015625 17.1875 
L 47.609375 17.1875 
L 47.609375 0 
L 37.796875 0 
L 37.796875 17.1875 
L 4.890625 17.1875 
L 4.890625 26.703125 
z
" id="DejaVuSans-52"/>
      </defs>
      <g transform="translate(99.36875 135.729141)scale(0.15 -0.15)">
       <use xlink:href="#DejaVuSans-52"/>
       <use x="63.623047" xlink:href="#DejaVuSans-48"/>
       <use x="127.246094" xlink:href="#DejaVuSans-48"/>
      </g>
     </g>
    </g>
   </g>
   <g id="patch_91">
    <path d="M 135 504 
L 135 69.12 
" style="fill:none;stroke:#000000;stroke-linecap:square;stroke-linejoin:miter;stroke-width:0.8;"/>
   </g>
   <g id="patch_92">
    <path d="M 135 504 
L 972 504 
" style="fill:none;stroke:#000000;stroke-linecap:square;stroke-linejoin:miter;stroke-width:0.8;"/>
   </g>
   <g id="text_6">
    <!-- Content posted from Russian-based accounts -->
    <defs>
     <path d="M 64.40625 67.28125 
L 64.40625 56.890625 
Q 59.421875 61.53125 53.78125 63.8125 
Q 48.140625 66.109375 41.796875 66.109375 
Q 29.296875 66.109375 22.65625 58.46875 
Q 16.015625 50.828125 16.015625 36.375 
Q 16.015625 21.96875 22.65625 14.328125 
Q 29.296875 6.6875 41.796875 6.6875 
Q 48.140625 6.6875 53.78125 8.984375 
Q 59.421875 11.28125 64.40625 15.921875 
L 64.40625 5.609375 
Q 59.234375 2.09375 53.4375 0.328125 
Q 47.65625 -1.421875 41.21875 -1.421875 
Q 24.65625 -1.421875 15.125 8.703125 
Q 5.609375 18.84375 5.609375 36.375 
Q 5.609375 53.953125 15.125 64.078125 
Q 24.65625 74.21875 41.21875 74.21875 
Q 47.75 74.21875 53.53125 72.484375 
Q 59.328125 70.75 64.40625 67.28125 
z
" id="DejaVuSans-67"/>
     <path d="M 30.609375 48.390625 
Q 23.390625 48.390625 19.1875 42.75 
Q 14.984375 37.109375 14.984375 27.296875 
Q 14.984375 17.484375 19.15625 11.84375 
Q 23.34375 6.203125 30.609375 6.203125 
Q 37.796875 6.203125 41.984375 11.859375 
Q 46.1875 17.53125 46.1875 27.296875 
Q 46.1875 37.015625 41.984375 42.703125 
Q 37.796875 48.390625 30.609375 48.390625 
z
M 30.609375 56 
Q 42.328125 56 49.015625 48.375 
Q 55.71875 40.765625 55.71875 27.296875 
Q 55.71875 13.875 49.015625 6.21875 
Q 42.328125 -1.421875 30.609375 -1.421875 
Q 18.84375 -1.421875 12.171875 6.21875 
Q 5.515625 13.875 5.515625 27.296875 
Q 5.515625 40.765625 12.171875 48.375 
Q 18.84375 56 30.609375 56 
z
" id="DejaVuSans-111"/>
     <path d="M 54.890625 33.015625 
L 54.890625 0 
L 45.90625 0 
L 45.90625 32.71875 
Q 45.90625 40.484375 42.875 44.328125 
Q 39.84375 48.1875 33.796875 48.1875 
Q 26.515625 48.1875 22.3125 43.546875 
Q 18.109375 38.921875 18.109375 30.90625 
L 18.109375 0 
L 9.078125 0 
L 9.078125 54.6875 
L 18.109375 54.6875 
L 18.109375 46.1875 
Q 21.34375 51.125 25.703125 53.5625 
Q 30.078125 56 35.796875 56 
Q 45.21875 56 50.046875 50.171875 
Q 54.890625 44.34375 54.890625 33.015625 
z
" id="DejaVuSans-110"/>
     <path d="M 18.3125 70.21875 
L 18.3125 54.6875 
L 36.8125 54.6875 
L 36.8125 47.703125 
L 18.3125 47.703125 
L 18.3125 18.015625 
Q 18.3125 11.328125 20.140625 9.421875 
Q 21.96875 7.515625 27.59375 7.515625 
L 36.8125 7.515625 
L 36.8125 0 
L 27.59375 0 
Q 17.1875 0 13.234375 3.875 
Q 9.28125 7.765625 9.28125 18.015625 
L 9.28125 47.703125 
L 2.6875 47.703125 
L 2.6875 54.6875 
L 9.28125 54.6875 
L 9.28125 70.21875 
z
" id="DejaVuSans-116"/>
     <path d="M 56.203125 29.59375 
L 56.203125 25.203125 
L 14.890625 25.203125 
Q 15.484375 15.921875 20.484375 11.0625 
Q 25.484375 6.203125 34.421875 6.203125 
Q 39.59375 6.203125 44.453125 7.46875 
Q 49.3125 8.734375 54.109375 11.28125 
L 54.109375 2.78125 
Q 49.265625 0.734375 44.1875 -0.34375 
Q 39.109375 -1.421875 33.890625 -1.421875 
Q 20.796875 -1.421875 13.15625 6.1875 
Q 5.515625 13.8125 5.515625 26.8125 
Q 5.515625 40.234375 12.765625 48.109375 
Q 20.015625 56 32.328125 56 
Q 43.359375 56 49.78125 48.890625 
Q 56.203125 41.796875 56.203125 29.59375 
z
M 47.21875 32.234375 
Q 47.125 39.59375 43.09375 43.984375 
Q 39.0625 48.390625 32.421875 48.390625 
Q 24.90625 48.390625 20.390625 44.140625 
Q 15.875 39.890625 15.1875 32.171875 
z
" id="DejaVuSans-101"/>
     <path id="DejaVuSans-32"/>
     <path d="M 18.109375 8.203125 
L 18.109375 -20.796875 
L 9.078125 -20.796875 
L 9.078125 54.6875 
L 18.109375 54.6875 
L 18.109375 46.390625 
Q 20.953125 51.265625 25.265625 53.625 
Q 29.59375 56 35.59375 56 
Q 45.5625 56 51.78125 48.09375 
Q 58.015625 40.1875 58.015625 27.296875 
Q 58.015625 14.40625 51.78125 6.484375 
Q 45.5625 -1.421875 35.59375 -1.421875 
Q 29.59375 -1.421875 25.265625 0.953125 
Q 20.953125 3.328125 18.109375 8.203125 
z
M 48.6875 27.296875 
Q 48.6875 37.203125 44.609375 42.84375 
Q 40.53125 48.484375 33.40625 48.484375 
Q 26.265625 48.484375 22.1875 42.84375 
Q 18.109375 37.203125 18.109375 27.296875 
Q 18.109375 17.390625 22.1875 11.75 
Q 26.265625 6.109375 33.40625 6.109375 
Q 40.53125 6.109375 44.609375 11.75 
Q 48.6875 17.390625 48.6875 27.296875 
z
" id="DejaVuSans-112"/>
     <path d="M 44.28125 53.078125 
L 44.28125 44.578125 
Q 40.484375 46.53125 36.375 47.5 
Q 32.28125 48.484375 27.875 48.484375 
Q 21.1875 48.484375 17.84375 46.4375 
Q 14.5 44.390625 14.5 40.28125 
Q 14.5 37.15625 16.890625 35.375 
Q 19.28125 33.59375 26.515625 31.984375 
L 29.59375 31.296875 
Q 39.15625 29.25 43.1875 25.515625 
Q 47.21875 21.78125 47.21875 15.09375 
Q 47.21875 7.46875 41.1875 3.015625 
Q 35.15625 -1.421875 24.609375 -1.421875 
Q 20.21875 -1.421875 15.453125 -0.5625 
Q 10.6875 0.296875 5.421875 2 
L 5.421875 11.28125 
Q 10.40625 8.6875 15.234375 7.390625 
Q 20.0625 6.109375 24.8125 6.109375 
Q 31.15625 6.109375 34.5625 8.28125 
Q 37.984375 10.453125 37.984375 14.40625 
Q 37.984375 18.0625 35.515625 20.015625 
Q 33.0625 21.96875 24.703125 23.78125 
L 21.578125 24.515625 
Q 13.234375 26.265625 9.515625 29.90625 
Q 5.8125 33.546875 5.8125 39.890625 
Q 5.8125 47.609375 11.28125 51.796875 
Q 16.75 56 26.8125 56 
Q 31.78125 56 36.171875 55.265625 
Q 40.578125 54.546875 44.28125 53.078125 
z
" id="DejaVuSans-115"/>
     <path d="M 45.40625 46.390625 
L 45.40625 75.984375 
L 54.390625 75.984375 
L 54.390625 0 
L 45.40625 0 
L 45.40625 8.203125 
Q 42.578125 3.328125 38.25 0.953125 
Q 33.9375 -1.421875 27.875 -1.421875 
Q 17.96875 -1.421875 11.734375 6.484375 
Q 5.515625 14.40625 5.515625 27.296875 
Q 5.515625 40.1875 11.734375 48.09375 
Q 17.96875 56 27.875 56 
Q 33.9375 56 38.25 53.625 
Q 42.578125 51.265625 45.40625 46.390625 
z
M 14.796875 27.296875 
Q 14.796875 17.390625 18.875 11.75 
Q 22.953125 6.109375 30.078125 6.109375 
Q 37.203125 6.109375 41.296875 11.75 
Q 45.40625 17.390625 45.40625 27.296875 
Q 45.40625 37.203125 41.296875 42.84375 
Q 37.203125 48.484375 30.078125 48.484375 
Q 22.953125 48.484375 18.875 42.84375 
Q 14.796875 37.203125 14.796875 27.296875 
z
" id="DejaVuSans-100"/>
     <path d="M 37.109375 75.984375 
L 37.109375 68.5 
L 28.515625 68.5 
Q 23.6875 68.5 21.796875 66.546875 
Q 19.921875 64.59375 19.921875 59.515625 
L 19.921875 54.6875 
L 34.71875 54.6875 
L 34.71875 47.703125 
L 19.921875 47.703125 
L 19.921875 0 
L 10.890625 0 
L 10.890625 47.703125 
L 2.296875 47.703125 
L 2.296875 54.6875 
L 10.890625 54.6875 
L 10.890625 58.5 
Q 10.890625 67.625 15.140625 71.796875 
Q 19.390625 75.984375 28.609375 75.984375 
z
" id="DejaVuSans-102"/>
     <path d="M 41.109375 46.296875 
Q 39.59375 47.171875 37.8125 47.578125 
Q 36.03125 48 33.890625 48 
Q 26.265625 48 22.1875 43.046875 
Q 18.109375 38.09375 18.109375 28.8125 
L 18.109375 0 
L 9.078125 0 
L 9.078125 54.6875 
L 18.109375 54.6875 
L 18.109375 46.1875 
Q 20.953125 51.171875 25.484375 53.578125 
Q 30.03125 56 36.53125 56 
Q 37.453125 56 38.578125 55.875 
Q 39.703125 55.765625 41.0625 55.515625 
z
" id="DejaVuSans-114"/>
     <path d="M 52 44.1875 
Q 55.375 50.25 60.0625 53.125 
Q 64.75 56 71.09375 56 
Q 79.640625 56 84.28125 50.015625 
Q 88.921875 44.046875 88.921875 33.015625 
L 88.921875 0 
L 79.890625 0 
L 79.890625 32.71875 
Q 79.890625 40.578125 77.09375 44.375 
Q 74.3125 48.1875 68.609375 48.1875 
Q 61.625 48.1875 57.5625 43.546875 
Q 53.515625 38.921875 53.515625 30.90625 
L 53.515625 0 
L 44.484375 0 
L 44.484375 32.71875 
Q 44.484375 40.625 41.703125 44.40625 
Q 38.921875 48.1875 33.109375 48.1875 
Q 26.21875 48.1875 22.15625 43.53125 
Q 18.109375 38.875 18.109375 30.90625 
L 18.109375 0 
L 9.078125 0 
L 9.078125 54.6875 
L 18.109375 54.6875 
L 18.109375 46.1875 
Q 21.1875 51.21875 25.484375 53.609375 
Q 29.78125 56 35.6875 56 
Q 41.65625 56 45.828125 52.96875 
Q 50 49.953125 52 44.1875 
z
" id="DejaVuSans-109"/>
     <path d="M 44.390625 34.1875 
Q 47.5625 33.109375 50.5625 29.59375 
Q 53.5625 26.078125 56.59375 19.921875 
L 66.609375 0 
L 56 0 
L 46.6875 18.703125 
Q 43.0625 26.03125 39.671875 28.421875 
Q 36.28125 30.8125 30.421875 30.8125 
L 19.671875 30.8125 
L 19.671875 0 
L 9.8125 0 
L 9.8125 72.90625 
L 32.078125 72.90625 
Q 44.578125 72.90625 50.734375 67.671875 
Q 56.890625 62.453125 56.890625 51.90625 
Q 56.890625 45.015625 53.6875 40.46875 
Q 50.484375 35.9375 44.390625 34.1875 
z
M 19.671875 64.796875 
L 19.671875 38.921875 
L 32.078125 38.921875 
Q 39.203125 38.921875 42.84375 42.21875 
Q 46.484375 45.515625 46.484375 51.90625 
Q 46.484375 58.296875 42.84375 61.546875 
Q 39.203125 64.796875 32.078125 64.796875 
z
" id="DejaVuSans-82"/>
     <path d="M 8.5 21.578125 
L 8.5 54.6875 
L 17.484375 54.6875 
L 17.484375 21.921875 
Q 17.484375 14.15625 20.5 10.265625 
Q 23.53125 6.390625 29.59375 6.390625 
Q 36.859375 6.390625 41.078125 11.03125 
Q 45.3125 15.671875 45.3125 23.6875 
L 45.3125 54.6875 
L 54.296875 54.6875 
L 54.296875 0 
L 45.3125 0 
L 45.3125 8.40625 
Q 42.046875 3.421875 37.71875 1 
Q 33.40625 -1.421875 27.6875 -1.421875 
Q 18.265625 -1.421875 13.375 4.4375 
Q 8.5 10.296875 8.5 21.578125 
z
M 31.109375 56 
z
" id="DejaVuSans-117"/>
     <path d="M 9.421875 54.6875 
L 18.40625 54.6875 
L 18.40625 0 
L 9.421875 0 
z
M 9.421875 75.984375 
L 18.40625 75.984375 
L 18.40625 64.59375 
L 9.421875 64.59375 
z
" id="DejaVuSans-105"/>
     <path d="M 34.28125 27.484375 
Q 23.390625 27.484375 19.1875 25 
Q 14.984375 22.515625 14.984375 16.5 
Q 14.984375 11.71875 18.140625 8.90625 
Q 21.296875 6.109375 26.703125 6.109375 
Q 34.1875 6.109375 38.703125 11.40625 
Q 43.21875 16.703125 43.21875 25.484375 
L 43.21875 27.484375 
z
M 52.203125 31.203125 
L 52.203125 0 
L 43.21875 0 
L 43.21875 8.296875 
Q 40.140625 3.328125 35.546875 0.953125 
Q 30.953125 -1.421875 24.3125 -1.421875 
Q 15.921875 -1.421875 10.953125 3.296875 
Q 6 8.015625 6 15.921875 
Q 6 25.140625 12.171875 29.828125 
Q 18.359375 34.515625 30.609375 34.515625 
L 43.21875 34.515625 
L 43.21875 35.40625 
Q 43.21875 41.609375 39.140625 45 
Q 35.0625 48.390625 27.6875 48.390625 
Q 23 48.390625 18.546875 47.265625 
Q 14.109375 46.140625 10.015625 43.890625 
L 10.015625 52.203125 
Q 14.9375 54.109375 19.578125 55.046875 
Q 24.21875 56 28.609375 56 
Q 40.484375 56 46.34375 49.84375 
Q 52.203125 43.703125 52.203125 31.203125 
z
" id="DejaVuSans-97"/>
     <path d="M 4.890625 31.390625 
L 31.203125 31.390625 
L 31.203125 23.390625 
L 4.890625 23.390625 
z
" id="DejaVuSans-45"/>
     <path d="M 48.6875 27.296875 
Q 48.6875 37.203125 44.609375 42.84375 
Q 40.53125 48.484375 33.40625 48.484375 
Q 26.265625 48.484375 22.1875 42.84375 
Q 18.109375 37.203125 18.109375 27.296875 
Q 18.109375 17.390625 22.1875 11.75 
Q 26.265625 6.109375 33.40625 6.109375 
Q 40.53125 6.109375 44.609375 11.75 
Q 48.6875 17.390625 48.6875 27.296875 
z
M 18.109375 46.390625 
Q 20.953125 51.265625 25.265625 53.625 
Q 29.59375 56 35.59375 56 
Q 45.5625 56 51.78125 48.09375 
Q 58.015625 40.1875 58.015625 27.296875 
Q 58.015625 14.40625 51.78125 6.484375 
Q 45.5625 -1.421875 35.59375 -1.421875 
Q 29.59375 -1.421875 25.265625 0.953125 
Q 20.953125 3.328125 18.109375 8.203125 
L 18.109375 0 
L 9.078125 0 
L 9.078125 75.984375 
L 18.109375 75.984375 
z
" id="DejaVuSans-98"/>
     <path d="M 48.78125 52.59375 
L 48.78125 44.1875 
Q 44.96875 46.296875 41.140625 47.34375 
Q 37.3125 48.390625 33.40625 48.390625 
Q 24.65625 48.390625 19.8125 42.84375 
Q 14.984375 37.3125 14.984375 27.296875 
Q 14.984375 17.28125 19.8125 11.734375 
Q 24.65625 6.203125 33.40625 6.203125 
Q 37.3125 6.203125 41.140625 7.25 
Q 44.96875 8.296875 48.78125 10.40625 
L 48.78125 2.09375 
Q 45.015625 0.34375 40.984375 -0.53125 
Q 36.96875 -1.421875 32.421875 -1.421875 
Q 20.0625 -1.421875 12.78125 6.34375 
Q 5.515625 14.109375 5.515625 27.296875 
Q 5.515625 40.671875 12.859375 48.328125 
Q 20.21875 56 33.015625 56 
Q 37.15625 56 41.109375 55.140625 
Q 45.0625 54.296875 48.78125 52.59375 
z
" id="DejaVuSans-99"/>
    </defs>
    <g transform="translate(416.787188 63.12)scale(0.12 -0.12)">
     <use xlink:href="#DejaVuSans-67"/>
     <use x="69.824219" xlink:href="#DejaVuSans-111"/>
     <use x="131.005859" xlink:href="#DejaVuSans-110"/>
     <use x="194.384766" xlink:href="#DejaVuSans-116"/>
     <use x="233.59375" xlink:href="#DejaVuSans-101"/>
     <use x="295.117188" xlink:href="#DejaVuSans-110"/>
     <use x="358.496094" xlink:href="#DejaVuSans-116"/>
     <use x="397.705078" xlink:href="#DejaVuSans-32"/>
     <use x="429.492188" xlink:href="#DejaVuSans-112"/>
     <use x="492.96875" xlink:href="#DejaVuSans-111"/>
     <use x="554.150391" xlink:href="#DejaVuSans-115"/>
     <use x="606.25" xlink:href="#DejaVuSans-116"/>
     <use x="645.458984" xlink:href="#DejaVuSans-101"/>
     <use x="706.982422" xlink:href="#DejaVuSans-100"/>
     <use x="770.458984" xlink:href="#DejaVuSans-32"/>
     <use x="802.246094" xlink:href="#DejaVuSans-102"/>
     <use x="837.451172" xlink:href="#DejaVuSans-114"/>
     <use x="878.533203" xlink:href="#DejaVuSans-111"/>
     <use x="939.714844" xlink:href="#DejaVuSans-109"/>
     <use x="1037.126953" xlink:href="#DejaVuSans-32"/>
     <use x="1068.914062" xlink:href="#DejaVuSans-82"/>
     <use x="1138.333984" xlink:href="#DejaVuSans-117"/>
     <use x="1201.712891" xlink:href="#DejaVuSans-115"/>
     <use x="1253.8125" xlink:href="#DejaVuSans-115"/>
     <use x="1305.912109" xlink:href="#DejaVuSans-105"/>
     <use x="1333.695312" xlink:href="#DejaVuSans-97"/>
     <use x="1394.974609" xlink:href="#DejaVuSans-110"/>
     <use x="1458.353516" xlink:href="#DejaVuSans-45"/>
     <use x="1494.4375" xlink:href="#DejaVuSans-98"/>
     <use x="1557.914062" xlink:href="#DejaVuSans-97"/>
     <use x="1619.193359" xlink:href="#DejaVuSans-115"/>
     <use x="1671.292969" xlink:href="#DejaVuSans-101"/>
     <use x="1732.816406" xlink:href="#DejaVuSans-100"/>
     <use x="1796.292969" xlink:href="#DejaVuSans-32"/>
     <use x="1828.080078" xlink:href="#DejaVuSans-97"/>
     <use x="1889.359375" xlink:href="#DejaVuSans-99"/>
     <use x="1944.339844" xlink:href="#DejaVuSans-99"/>
     <use x="1999.320312" xlink:href="#DejaVuSans-111"/>
     <use x="2060.501953" xlink:href="#DejaVuSans-117"/>
     <use x="2123.880859" xlink:href="#DejaVuSans-110"/>
     <use x="2187.259766" xlink:href="#DejaVuSans-116"/>
     <use x="2226.46875" xlink:href="#DejaVuSans-115"/>
    </g>
   </g>
   <g id="legend_1">
    <g id="patch_93">
     <path d="M 890.41875 121.98875 
L 965 121.98875 
Q 967 121.98875 967 119.98875 
L 967 76.12 
Q 967 74.12 965 74.12 
L 890.41875 74.12 
Q 888.41875 74.12 888.41875 76.12 
L 888.41875 119.98875 
Q 888.41875 121.98875 890.41875 121.98875 
z
" style="fill:#ffffff;opacity:0.8;stroke:#cccccc;stroke-linejoin:miter;"/>
    </g>
    <g id="text_7">
     <!-- pro_anti_war -->
     <defs>
      <path d="M 50.984375 -16.609375 
L 50.984375 -23.578125 
L -0.984375 -23.578125 
L -0.984375 -16.609375 
z
" id="DejaVuSans-95"/>
      <path d="M 4.203125 54.6875 
L 13.1875 54.6875 
L 24.421875 12.015625 
L 35.59375 54.6875 
L 46.1875 54.6875 
L 57.421875 12.015625 
L 68.609375 54.6875 
L 77.59375 54.6875 
L 63.28125 0 
L 52.6875 0 
L 40.921875 44.828125 
L 29.109375 0 
L 18.5 0 
z
" id="DejaVuSans-119"/>
     </defs>
     <g transform="translate(895.63125 85.718437)scale(0.1 -0.1)">
      <use xlink:href="#DejaVuSans-112"/>
      <use x="63.476562" xlink:href="#DejaVuSans-114"/>
      <use x="104.558594" xlink:href="#DejaVuSans-111"/>
      <use x="165.740234" xlink:href="#DejaVuSans-95"/>
      <use x="215.740234" xlink:href="#DejaVuSans-97"/>
      <use x="277.019531" xlink:href="#DejaVuSans-110"/>
      <use x="340.398438" xlink:href="#DejaVuSans-116"/>
      <use x="379.607422" xlink:href="#DejaVuSans-105"/>
      <use x="407.390625" xlink:href="#DejaVuSans-95"/>
      <use x="457.390625" xlink:href="#DejaVuSans-119"/>
      <use x="539.177734" xlink:href="#DejaVuSans-97"/>
      <use x="600.457031" xlink:href="#DejaVuSans-114"/>
     </g>
    </g>
    <g id="patch_94">
     <path d="M 892.41875 100.674688 
L 912.41875 100.674688 
L 912.41875 93.674688 
L 892.41875 93.674688 
z
" style="fill:#1f77b4;"/>
    </g>
    <g id="text_8">
     <!-- anti_war -->
     <g transform="translate(920.41875 100.674688)scale(0.1 -0.1)">
      <use xlink:href="#DejaVuSans-97"/>
      <use x="61.279297" xlink:href="#DejaVuSans-110"/>
      <use x="124.658203" xlink:href="#DejaVuSans-116"/>
      <use x="163.867188" xlink:href="#DejaVuSans-105"/>
      <use x="191.650391" xlink:href="#DejaVuSans-95"/>
      <use x="241.650391" xlink:href="#DejaVuSans-119"/>
      <use x="323.4375" xlink:href="#DejaVuSans-97"/>
      <use x="384.716797" xlink:href="#DejaVuSans-114"/>
     </g>
    </g>
    <g id="patch_95">
     <path d="M 892.41875 115.630938 
L 912.41875 115.630938 
L 912.41875 108.630938 
L 892.41875 108.630938 
z
" style="fill:#ff7f0e;"/>
    </g>
    <g id="text_9">
     <!-- pro_war -->
     <g transform="translate(920.41875 115.630938)scale(0.1 -0.1)">
      <use xlink:href="#DejaVuSans-112"/>
      <use x="63.476562" xlink:href="#DejaVuSans-114"/>
      <use x="104.558594" xlink:href="#DejaVuSans-111"/>
      <use x="165.740234" xlink:href="#DejaVuSans-95"/>
      <use x="215.740234" xlink:href="#DejaVuSans-119"/>
      <use x="297.527344" xlink:href="#DejaVuSans-97"/>
      <use x="358.806641" xlink:href="#DejaVuSans-114"/>
     </g>
    </g>
   </g>
  </g>
 </g>
 <defs>
  <clipPath id="p9137dca9b9">
   <rect height="434.88" width="837" x="135" y="69.12"/>
  </clipPath>
 </defs>
</svg>
